<?xml version="1.0" encoding="utf-8"?>
<!-- Generator: Adobe Illustrator 12.0.1, SVG Export Plug-In . SVG Version: 6.00 Build 51448)  -->
<!DOCTYPE svg PUBLIC "-//W3C//DTD SVG 1.1//EN" "http://www.w3.org/Graphics/SVG/1.1/DTD/svg11.dtd" [
	<!ENTITY ns_svg "http://www.w3.org/2000/svg">
	<!ENTITY ns_xlink "http://www.w3.org/1999/xlink">
]>
<svg  version="1.1" id="Layer_1" xmlns="&ns_svg;" xmlns:xlink="&ns_xlink;" width="493.202" height="491.234"
	 viewBox="0 0 493.202 491.234" overflow="visible" enable-background="new 0 0 493.202 491.234" xml:space="preserve">
<g>
	<path fill-rule="evenodd" clip-rule="evenodd" fill="#7E8082" d="M88.894,219.501c-1.166,8.168-5.027,13.639-9,19
		c-20.307-11.188-37.287-25.438-52-44c-4.253-5.365-12.09-12.649-13.5-18.5c-2.101-8.716,0.023-19.724,1.5-29
		c4.652-29.215,14.736-49.236,30-66.5c20.46-23.142,44.486-40.729,77.5-51.5c22.183-7.237,46.783-8.071,70-6
		c23.682,2.112,44.579,12.036,69.5,10c18.542-1.515,33.673-7.355,48-13c-14.168,8.728-29.43,16.425-48,20
		c-19.933,3.837-42.071,1.543-64.5,0.5c-45.144-2.1-79.169,7.485-102.5,32c-24.38,25.616-38.549,75.662-27,124
		c2.646,11.073,6.741,22.335,11.5,33c-6.13-20.98-14.333-42.097-14.5-69c-0.323-52.133,22.647-88.29,58.5-107
		c25.28-13.193,58.408-12.693,96-10c48.692,3.488,77.027-12.489,106.5-30.5c-3.718-0.355-6.622,2.212-10,3.5
		c-16.083,6.133-33.588,13.782-55,15c-16.289,0.926-31.528-2.332-46-6c-47.657-12.079-93.458-1.49-126.5,17.5
		c-42.966,24.694-77.208,61.437-76,130.5c-5.579-4.879-6.343-11.373-5.5-21.5c3.018-36.245,19.185-63.918,39-84
		c16.892-17.12,39.92-32.4,66-42c3.656-1.346,6.99-3.497,10.5-4.5c19.308-5.518,43.935-7.005,66-5.5c21.73,1.482,41.457,8.771,62,10
		c26.82,1.604,49.363-9.076,68-17.5c-9.604,1.723-17.976,6.682-27.5,10c-12.869,4.483-29.788,7.087-47.5,5.5
		c-20.898-1.872-38.655-9.054-59-10c-21.171-0.985-42.531,0.767-61.5,6c-15.702,4.333-31.401,12.55-44.5,20.5
		c-40.099,24.335-68.926,59.666-73,120.5c-4.096-4.794-1.804-11.881-1-17c8.303-52.883,39.218-85.618,78.5-108
		c24.373-13.887,50.35-24.346,90.5-24c2.763,0.024,5.805-0.587,8.5-0.5c28.894,0.932,53.671,14.516,87,10
		c18.854-2.554,35.816-10.398,51.5-17c7.528-3.169,16.176,4.208,13,13c-1.677,4.643-12.438,8.625-18.5,12
		c-25.457,14.172-52.537,26.648-94.5,23c-16.688-1.451-40.312-3.366-61-0.5c-35.201,4.875-59.494,24.606-73,52
		c-2.65,5.376-4.579,11.49-7.5,18.5c-2.562,18.352-5.973,40.01-3,59.5c1.669,10.945,4.665,22.032,7.5,30.5
		C85.208,214.932,87.302,217.271,88.894,219.501z M73.394,147.501c3.344-45.501,29.072-85.063,75-95.5
		c21.765-4.946,48.841-2.995,73.5-1.5c35.785,2.169,62.896-6.333,87.5-19.5c4.674-2.501,20.715-9.439,22.5-14.5
		c2.719-7.708-3.597-12.357-10-10.5c-0.64,0.027-0.692,0.641-1.5,0.5c-0.105,3.202,3.904,0.294,5.5,0.5
		c12.839,6.667-0.295,13.123-8,17.5c-16.011,9.096-33.747,18.737-52.5,22.5c-32.051,6.431-65.809-2.019-98.5,0.5
		c-56.142,4.325-91.396,45.414-94.5,100c-1.754,30.84,3.403,53.3,12.5,74C76.784,196.117,71.595,171.983,73.394,147.501z"/>
	<path fill-rule="evenodd" clip-rule="evenodd" d="M84.894,221.501c-9.097-20.7-14.254-43.16-12.5-74
		c3.104-54.586,38.358-95.675,94.5-100c32.691-2.519,66.449,5.931,98.5-0.5c18.753-3.763,36.489-13.404,52.5-22.5
		c7.705-4.377,20.839-10.833,8-17.5c-1.596-0.206-5.605,2.702-5.5-0.5c0.808,0.141,0.86-0.473,1.5-0.5
		c6.403-1.857,12.719,2.792,10,10.5c-1.785,5.061-17.826,11.999-22.5,14.5c-24.604,13.167-51.715,21.669-87.5,19.5
		c-24.659-1.495-51.735-3.446-73.5,1.5c-45.928,10.437-71.656,49.999-75,95.5C71.595,171.983,76.784,196.117,84.894,221.501z"/>
	<path fill-rule="evenodd" clip-rule="evenodd" fill="#BB8748" d="M190.394,135.001c0.061-2.341,0.728,0.544,2,0c0-1.5,0-3,0-4.5
		c4.468-10.004,13.125-19.618,27-17.5c9.227,1.409,13.288,8.98,19.5,14c2.875,8.078,1.992,15.434-1,22.5
		c-4.488,2.179-6.876,6.457-11,9c-11.706,1.285-25.966,1.483-29.5-7c-0.792-0.042-1.907,0.24-2-0.5
		C192.144,147.251,190.271,142.125,190.394,135.001z M194.894,132.501c3.734-6.001,7.684-13.97,16-15.5
		c10.68-1.965,16.795,3.583,22.5,9C226.845,109.493,195.505,113.738,194.894,132.501z M202.894,131.001
		c3.165-5.791,13.428-8.619,21.5-5C218.757,119.809,203.959,122.617,202.894,131.001z M208.394,149.001
		c4.11,3.212,13.101,3.019,16-1C220.609,149.619,213.187,150.051,208.394,149.001z M231.894,148.501
		c-4.135,9.408-23.112,11.194-30,3c1.571,5.999,12.208,8.203,19.5,6.5c5.32-1.243,9.713-5.234,11.5-9
		C232.784,148.612,232.475,148.42,231.894,148.501z"/>
	<path fill-rule="evenodd" clip-rule="evenodd" d="M233.394,126.001c-5.705-5.417-11.82-10.965-22.5-9
		c-8.316,1.53-12.266,9.499-16,15.5C195.505,113.738,226.845,109.493,233.394,126.001z"/>
	<path fill-rule="evenodd" clip-rule="evenodd" d="M224.394,126.001c-8.072-3.619-18.335-0.791-21.5,5
		C203.959,122.617,218.757,119.809,224.394,126.001z"/>
	<path fill-rule="evenodd" clip-rule="evenodd" fill="#BB8748" d="M465.394,183.001c-5.424-1.576-8.119-5.881-12-9
		c-5.659-1.507-9.273-5.06-16.5-5c6.92-15.747,17.309-28.025,28.5-39.5c0.581-0.082,0.89,0.11,1,0.5
		C463.238,146.003,462.366,166.142,465.394,183.001z M452.394,151.501c-0.312,1.355-2.089,1.245-2,3c4.022-1.978,6.703-5.297,9-9
		c-3.194,0.972-3.806,4.528-7,5.5c1.593-3.741,5.545-5.122,7.5-8.5c-4.265,1.569-7.044,4.622-9,8.5
		C451.482,151.08,452.313,150.916,452.394,151.501z M454.394,155.001c3.346-2.488,6.123-5.544,8.5-9
		C459.081,148.021,455.812,150.585,454.394,155.001z M449.394,168.001c3.887-2.113,6.502-5.498,9-9
		C454.174,160.782,451.642,164.25,449.394,168.001z M449.394,171.501c3.883-2.118,6.096-5.904,9-9
		C453.886,163.993,451.695,167.802,449.394,171.501z M452.894,171.001c4.496-1.004,6.021-4.978,8.5-8
		C458.408,163.521,455.14,168.076,452.894,171.001z"/>
	<path fill-rule="evenodd" clip-rule="evenodd" d="M462.894,146.001c-2.377,3.456-5.154,6.512-8.5,9
		C455.812,150.585,459.081,148.021,462.894,146.001z"/>
	<path fill-rule="evenodd" clip-rule="evenodd" d="M224.394,148.001c-2.899,4.019-11.89,4.212-16,1
		C213.187,150.051,220.609,149.619,224.394,148.001z"/>
	<path fill-rule="evenodd" clip-rule="evenodd" d="M232.894,149.001c-1.787,3.766-6.18,7.757-11.5,9
		c-7.292,1.703-17.929-0.501-19.5-6.5c6.888,8.194,25.865,6.408,30-3C232.475,148.42,232.784,148.612,232.894,149.001z"/>
	<path fill-rule="evenodd" clip-rule="evenodd" d="M458.394,159.001c-2.498,3.502-5.113,6.887-9,9
		C451.642,164.25,454.174,160.782,458.394,159.001z"/>
	<path fill-rule="evenodd" clip-rule="evenodd" fill="#E9EEF1" d="M201.894,160.001c1.528-0.361,1.822,0.511,3,0.5
		c2.302,8.247,0.938,19.835-6,22C202.295,176.786,206.014,167.653,201.894,160.001z"/>
	<path fill-rule="evenodd" clip-rule="evenodd" fill="#E9EEF1" d="M228.394,160.001c0.581-0.082,0.89,0.11,1,0.5
		c-3.608,7.326-0.527,18.124,4.5,21.5C226.562,184.965,222.294,163.495,228.394,160.001z"/>
	<path fill-rule="evenodd" clip-rule="evenodd" fill="#E9EEF1" d="M206.394,160.501c5.587,1.328,13.413,1.328,19,0
		c-3.311,8.121,0.279,17.482,4,23c-9.493,1.758-17.953,2.122-27-0.5C206.202,178.248,209.266,168.757,206.394,160.501z"/>
	<path fill-rule="evenodd" clip-rule="evenodd" fill="#BB8748" d="M2.894,161.001c16.126,35.707,42.076,61.591,75,80.5
		c-1.686,3.481-3.504,6.829-7,8.5c-21.256-15.411-39.662-33.672-54.5-55.5c-3.475-7.025-6.709-14.291-11.5-20
		c13.857,31.643,37.683,57.651,66,76.5c-3.057,5.443-8.287,8.713-12,13.5c-21.378-18.956-39.069-41.598-51-70
		c-0.857,3.735,1.81,8.092,3.5,11.5c5.25,10.584,12.959,21.11,19,31c8.936,9.73,17.727,19.606,27,29
		c-6.77,4.397-10.773,11.561-21,12.5C19.262,245.633,0.517,211.712,2.894,161.001z"/>
	<path fill-rule="evenodd" clip-rule="evenodd" d="M458.394,162.501c-2.904,3.096-5.117,6.882-9,9
		C451.695,167.802,453.886,163.993,458.394,162.501z"/>
	<path fill-rule="evenodd" clip-rule="evenodd" d="M461.394,163.001c-2.479,3.022-4.004,6.996-8.5,8
		C455.14,168.076,458.408,163.521,461.394,163.001z"/>
	<path fill-rule="evenodd" clip-rule="evenodd" d="M414.394,185.001c2.072-3.928,5.18-6.82,8.5-9.5
		C422.488,179.151,417.696,182.595,414.394,185.001z"/>
	<path fill-rule="evenodd" clip-rule="evenodd" d="M422.894,179.501c-2.218,3.783-5.369,6.631-9,9
		C416.057,184.664,418.838,181.446,422.894,179.501z"/>
	<path fill-rule="evenodd" clip-rule="evenodd" d="M426.394,179.501c-1.978,4.189-5.098,7.236-9,9.5
		C419.439,184.879,422.733,182.007,426.394,179.501z"/>
	<path fill-rule="evenodd" clip-rule="evenodd" fill="#E9EEF1" d="M202.394,185.501c-27.523,1.489-55.869,2.57-78.5,9
		c-5.416,1.539-11.314,2.892-15,6.5c36.678-13.479,88.052-15.357,134-13c29.428,1.51,57.558,4.026,80.5,14
		c-0.586-3.246-5.021-3.608-7.5-4.5c-24.554-8.839-54.593-10.739-86-11.5c1.77-1.23,4.995-1.005,6-3
		c35.752,2.581,72.643,4.024,95.5,19.5c-76.04,2.422-148.267-0.501-232,0.5c20.083-16.344,58.138-16.252,90.5-19.5
		C194.354,183.054,197.927,184.127,202.394,185.501z"/>
	<path fill-rule="evenodd" clip-rule="evenodd" d="M479.394,245.001c17.304-26.391-5.781-64.707-38.5-58
		c-5.288,1.084-8.95,4.18-14.5,6.5c5.255-7.192,16.818-8.936,25-8.5C477.872,186.411,497.503,221.048,479.394,245.001z"/>
	<path fill-rule="evenodd" clip-rule="evenodd" d="M477.394,234.001c4.623-24.668-10.149-44.087-38-39.5
		C464.023,185.497,486.248,209.568,477.394,234.001z"/>
	<path fill-rule="evenodd" clip-rule="evenodd" fill="#7E8082" d="M418.394,195.501c0.855-0.022,1.295,0.372,1.5,1
		c-1.773,1.894-2.959,4.374-6,5C414.099,198.207,417.571,198.178,418.394,195.501z"/>
	<path fill-rule="evenodd" clip-rule="evenodd" fill="#7E8082" d="M420.394,198.001c2.067,0.6,3.417,1.917,4.5,3.5
		c-0.686,2.648-3.632,3.035-4.5,5.5c-1.923-0.744-3.407-1.926-4.5-3.5C416.533,200.807,419.648,200.588,420.394,198.001z"/>
	<path fill-rule="evenodd" clip-rule="evenodd" d="M390.894,207.501c1.771-3.896,5.393-5.941,8-9
		C399.88,201.311,394.189,205.683,390.894,207.501z"/>
	<path fill-rule="evenodd" clip-rule="evenodd" d="M398.894,202.001c0.945,1.941-5.186,7.634-8,9.5
		C392.652,207.426,396.058,204.999,398.894,202.001z"/>
	<path fill-rule="evenodd" clip-rule="evenodd" d="M402.894,202.501c-1.976,4.19-5.269,7.064-9,9.5
		C395.945,207.885,399.134,204.908,402.894,202.501z"/>
	<path fill-rule="evenodd" clip-rule="evenodd" fill="#7E8082" d="M468.394,246.501c-0.773,2.56-4.014,2.653-4.5,5.5
		c3.275-0.059,3.12-3.546,6-4c0.591,2.076,3.056,2.278,3.5,4.5c-1.763,1.237-3.637,2.364-4.5,4.5
		c-17.086-15.081-31.868-32.464-48-48.5c1.038-2.128,3.412-2.921,4.5-5C440.85,216.712,453.575,232.654,468.394,246.501z"/>
	<path fill-rule="evenodd" clip-rule="evenodd" fill="#BB8748" d="M412.894,204.501c2.979,0.855,3.426,4.24,6,5.5
		c-4.725,7.108-11.177,12.49-17.5,18c-1.092-2.575-3.57-3.763-4.5-6.5C402.041,215.648,408.002,210.61,412.894,204.501z
		 M401.894,219.001c3.572-2.427,6.696-5.304,9-9C407.806,210.918,403.955,215.392,401.894,219.001z M401.394,222.501
		c3.819-1.851,8.187-5.809,8.5-9.5C407.264,216.372,403.463,218.571,401.394,222.501z M404.894,222.001c4.406-1.26,6.509-4.824,9-8
		C409.72,215.494,407.827,219.267,404.894,222.001z"/>
	<path fill-rule="evenodd" clip-rule="evenodd" fill="#E9EEF1" d="M244.894,205.501c-1.678,1.155-5.492,0.175-8,0.5
		C237.948,204.403,243.128,204.778,244.894,205.501z"/>
	<path fill-rule="evenodd" clip-rule="evenodd" fill="#E9EEF1" d="M119.394,205.501c0.988,1.347-5.365-0.384-6,1
		c18.447,0.134,41.317,1.19,64,0c-10.834-1.166-23.833-0.167-35.5-0.5c-2.197,0.271-9.01-0.308-3.5-0.5c3,0,6,0,9,0c6,0,12,0,18,0
		c23.815-0.052,48.641,0.079,71,0c-0.136,1.031-2.214,0.119-2,1.5c2.138,0.71,8.646-0.897,11.5,0.5c-1.369,0.798-3.987,0.346-4.5,2
		c-17.025-2.335-38.068,3.125-54,0c-1.577-0.309-2.062-1.027-3.5-1.5c-29.2-1.103-58.691,1.75-86.5,0c0-0.667,0-1.333,0-2
		C103.748,204.855,112.212,205.82,119.394,205.501z"/>
	<path fill-rule="evenodd" clip-rule="evenodd" fill="#E9EEF1" d="M121.394,206.001c3.005-1.161,8.163-0.171,12-0.5
		C130.389,206.663,125.231,205.672,121.394,206.001z"/>
	<path fill-rule="evenodd" clip-rule="evenodd" fill="#E9EEF1" d="M333.894,208.001c-18.204,2.442-38.454-0.378-55.5,0
		c5.503-1.497,14.497,0.497,20-1c0.474-1.807-1.97-0.697-3-1c8.343-0.693,19.924-0.439,32,0
		C329.513,206.079,333.861,204.709,333.894,208.001z"/>
	<path fill-rule="evenodd" clip-rule="evenodd" fill="#E9EEF1" d="M246.394,207.001c1.232-0.066,2.409-0.076,3,0.5
		C249.386,208.265,245.689,208.598,246.394,207.001z"/>
	<path fill-rule="evenodd" clip-rule="evenodd" fill="#E9EEF1" d="M264.894,208.001c0.372-1.128,2.805-0.195,4-0.5
		C268.328,209.551,266.678,207.62,264.894,208.001z"/>
	<path fill-rule="evenodd" clip-rule="evenodd" d="M410.894,210.001c-2.304,3.696-5.428,6.573-9,9
		C403.955,215.392,407.806,210.918,410.894,210.001z"/>
	<path fill-rule="evenodd" clip-rule="evenodd" d="M131.894,213.001c0.486,0.014,0.388,0.612,0.5,1
		c-33.324,27.454-61.399,62.623-78,108.5c-5.488,15.166-10.431,32.716-12,50c-2.288,25.206-0.8,55.409-2,84
		c-4.329-61.037,1.122-114.49,23.5-159c16.917-33.646,38.536-61.617,67-83.5C131.018,213.458,131.888,213.662,131.894,213.001z"/>
	<path fill-rule="evenodd" clip-rule="evenodd" d="M409.894,213.001c-0.313,3.691-4.681,7.649-8.5,9.5
		C403.463,218.571,407.264,216.372,409.894,213.001z"/>
	<path fill-rule="evenodd" clip-rule="evenodd" fill="#E9EEF1" d="M467.894,259.501c-16.879,22.454-37.039,41.627-53,65
		c-12.632-4.467-17.719-15.977-25-28.5c-6.421-11.044-12.237-21.33-15.5-34.5c-1.147-4.631-0.972-9.227-0.5-13
		c1.93-0.1,1.345-2.358,3.5-1c3.192-3.437,6.952-6.967,10.5-10.5c3.332-3.319,6.186-8.05,10.5-9c-5.751,9.416-15.74,14.593-21.5,24
		c8.109-6.557,15.291-14.042,22-22c1.569-0.236,1.321,1.346,2.5,1.5c7.384-5.283,12.396-12.938,19.5-18.5
		C437.328,227.734,451.444,244.785,467.894,259.501z M378.894,259.501c8.718-4.615,12.822-13.844,21-19
		c6.239-8.427,15.1-14.234,21-23C406.022,230.629,392.544,245.151,378.894,259.501z M427.894,229.501
		c-5.218,4.949-9.492,10.841-15.5,15c-8.219,11.114-20.129,18.537-28,30c15.515-14.152,30.298-29.035,44.5-44.5
		C428.784,229.612,428.475,229.42,427.894,229.501z M445.394,248.001c-3.038,5.295-8.109,8.558-11,14
		c-9.038,9.711-17.578,20.359-26,30c-2.947,3.374-6.331,6.759-8,11c16.403-17.43,31.352-36.315,46.5-55
		C446.394,248.001,445.894,248.001,445.394,248.001z M457.394,255.501c-16.271,19.729-32.87,39.13-49,59
		c3.297-0.688,5.154-4.215,7-6.5c14.425-17.856,29.599-34.586,43.5-52.5C458.394,255.501,457.894,255.501,457.394,255.501z
		 M463.894,258.501c-15.795,21.038-34.174,39.492-50,60.5c18.119-19.214,35.049-39.618,51.5-60.5
		C464.894,258.501,464.394,258.501,463.894,258.501z"/>
	<path fill-rule="evenodd" clip-rule="evenodd" d="M68.394,456.001c-10.021-115.464,31.314-190.72,88.5-242.5
		c0.581-0.082,0.89,0.11,1,0.5c-42.882,40.106-76.948,90.925-87,163.5C67.591,401.35,69.769,427.139,68.394,456.001z"/>
	<path fill-rule="evenodd" clip-rule="evenodd" d="M191.394,213.501c-50.226,57.942-87.128,129.203-81.5,243
		c-2.264-5.475-0.922-11.729-1-17.5c-0.624-46.208,5.33-88.637,18.5-123c15.606-40.719,37.247-73.846,62.5-102.5
		C190.394,213.501,190.894,213.501,191.394,213.501z"/>
	<path fill-rule="evenodd" clip-rule="evenodd" d="M240.894,213.501c51.688,57.2,88.17,130.51,81.5,243.5
		c-1.118-26.126-0.861-51.057-3.5-75c-2.587-23.478-8.349-46.026-16-65.5c-15.565-39.613-35.8-73.432-62-101
		C240.894,214.835,240.894,214.168,240.894,213.501z"/>
	<path fill-rule="evenodd" clip-rule="evenodd" d="M273.894,213.501c30.235,24.669,53.899,60.019,70.5,98
		c17.754,40.62,21.974,90.304,19.5,145.5c-2.474-20.524,0.054-45.022-1.5-64.5c-6.413-80.411-43.389-135.127-88-177.5
		C273.808,214.921,273.972,214.09,273.894,213.501z"/>
	<path fill-rule="evenodd" clip-rule="evenodd" d="M298.894,213.501c0.5,0,1,0,1.5,0c31.045,24.955,55.54,56.461,73,95
		c7.892,19.596,14.056,41.801,17,67c2.883,24.67,1.344,52.939,1,81c-1.929-21.699,0.069-50.111-2-74.5
		c-4.375-51.559-22.462-91.828-47.5-123.5c-13.156-16.642-25.928-30.896-42-43.5C299.279,214.783,298.868,214.362,298.894,213.501z"
		/>
	<path fill-rule="evenodd" clip-rule="evenodd" d="M413.894,214.001c-2.491,3.176-4.594,6.74-9,8
		C407.827,219.267,409.72,215.494,413.894,214.001z"/>
	<path fill-rule="evenodd" clip-rule="evenodd" d="M420.894,217.501c-5.9,8.766-14.761,14.573-21,23
		c-8.178,5.156-12.282,14.385-21,19C392.544,245.151,406.022,230.629,420.894,217.501z"/>
	<path fill-rule="evenodd" clip-rule="evenodd" fill="#E9EEF1" d="M489.894,222.501c0.958-1.086,0.315,3.656,0.5,5
		C489.436,228.588,490.079,223.846,489.894,222.501z"/>
	<path fill-rule="evenodd" clip-rule="evenodd" d="M428.894,230.001c-14.202,15.465-28.985,30.348-44.5,44.5
		c7.871-11.463,19.781-18.886,28-30c6.008-4.159,10.282-10.051,15.5-15C428.475,229.42,428.784,229.612,428.894,230.001z"/>
	<path fill-rule="evenodd" clip-rule="evenodd" fill="#E9EEF1" d="M488.894,232.501c0.978,3.485-0.869,8.458-3.5,10
		C486.643,239.25,488.521,236.629,488.894,232.501z"/>
	<path fill-rule="evenodd" clip-rule="evenodd" d="M446.894,248.001c-15.148,18.685-30.097,37.57-46.5,55
		c1.669-4.241,5.053-7.626,8-11c8.422-9.641,16.962-20.289,26-30c2.891-5.442,7.962-8.705,11-14
		C445.894,248.001,446.394,248.001,446.894,248.001z"/>
	<path fill-rule="evenodd" clip-rule="evenodd" fill="#7E8082" d="M473.894,253.001c0.581-0.082,0.89,0.11,1,0.5
		c-0.802,2.63-3.227,5.972-6,5C469.756,255.864,473.049,255.657,473.894,253.001z"/>
	<path fill-rule="evenodd" clip-rule="evenodd" d="M458.894,255.501c-13.901,17.914-29.075,34.644-43.5,52.5
		c-1.846,2.285-3.703,5.812-7,6.5c16.13-19.87,32.729-39.271,49-59C457.894,255.501,458.394,255.501,458.894,255.501z"/>
	<path fill-rule="evenodd" clip-rule="evenodd" d="M465.394,258.501c-16.451,20.882-33.381,41.286-51.5,60.5
		c15.826-21.008,34.205-39.462,50-60.5C464.394,258.501,464.894,258.501,465.394,258.501z"/>
	<path fill-rule="evenodd" clip-rule="evenodd" fill="#E9EEF1" d="M35.394,281.001c0.581-0.081,0.89,0.11,1,0.5
		c-11.417,22.943-21.567,49.729-24,80C12.986,329.593,24.319,304.094,35.394,281.001z"/>
	<path fill-rule="evenodd" clip-rule="evenodd" fill="#E9EEF1" d="M413.394,327.001c4.197,10.136,5.864,22.803,6.5,36.5
		C418.167,350.896,415.981,338.748,413.394,327.001z"/>
	<path fill-rule="evenodd" clip-rule="evenodd" fill="#E9EEF1" d="M11.394,364.001c2.097,1.644-0.253,5.141,0.5,8.5
		C9.825,371.559,11.062,365.82,11.394,364.001z"/>
	<path fill-rule="evenodd" clip-rule="evenodd" d="M418.894,388.501c0.5,0,1,0,1.5,0c-0.273,0.727,0.584,2.584-0.5,2.5
		C418.102,391.074,419.945,389.719,418.894,388.501z"/>
	<path fill-rule="evenodd" clip-rule="evenodd" d="M419.394,392.001c1.37,0.01,1.188,2.358,0.5,3
		C418.79,394.939,419.682,392.88,419.394,392.001z"/>
	<path fill-rule="evenodd" clip-rule="evenodd" d="M418.894,397.001c0.5,0,1,0,1.5,0c-0.61,6.224,0.165,12.335-0.5,17
		C417.719,410.074,419.808,401.484,418.894,397.001z"/>
	<path fill-rule="evenodd" clip-rule="evenodd" d="M419.394,415.001c1.638,1.226,0.19,2.446,1,4.5
		C418.096,419.284,419.173,416.494,419.394,415.001z"/>
	<path fill-rule="evenodd" clip-rule="evenodd" d="M418.894,421.001c1.791-0.291,1.521,1.479,1.5,3
		C418.877,424.018,419.148,422.248,418.894,421.001z"/>
	<path fill-rule="evenodd" clip-rule="evenodd" d="M419.394,428.501c0.546,5.009,1.994,11.295-0.5,14.5
		C419.195,438.302,418.271,432.379,419.394,428.501z"/>
	<path fill-rule="evenodd" clip-rule="evenodd" d="M418.894,444.001c2.213-0.055,1.469,4.464,0,5
		C418.894,447.334,418.894,445.668,418.894,444.001z"/>
	<path fill-rule="evenodd" clip-rule="evenodd" d="M418.894,450.001c2.158,0.343,0.46,4.54,1,6.5
		C417.736,456.159,419.434,451.961,418.894,450.001z"/>
	<path fill-rule="evenodd" clip-rule="evenodd" fill="#BB8748" d="M426.394,462.001c0.52,6.187,3.533,22.008-1,25.5
		c-3.344,2.576-15.289,1.202-23,1.5c-29.192,1.127-52.916-0.258-76-0.5c-104.705-1.097-189.963-0.5-294-0.5
		c-9.036,0-21.835,1.417-25.5-1.5c-4.616-3.674-2.427-18.418-1.5-24.5c2.88-1.28,8.2-1.589,11-1.5c64.96,2.058,137.345,0.5,208,0.5
		C296.725,461.001,362.994,460.701,426.394,462.001z M35.394,469.501c-0.39,0.11-0.582,0.419-0.5,1c34.884,0.8,75.765,0.879,109,0
		C107.844,468.606,76.242,470.184,35.394,469.501z M255.394,470.501c0.057,0.61,0.149,1.184,1,1c35.366-0.444,70.646,2.066,108-0.5
		C324.747,470.439,293.895,469.51,255.394,470.501z M52.394,474.001c36.124,1.634,82.549,1.674,119.5,0
		C132.666,473.351,84.384,472.888,52.394,474.001z M272.894,474.001c0.854,2.685,4.383,1.429,6,1.5
		c38.897,1.704,79.036-0.617,113.5-1C353.588,473.364,310.99,474.293,272.894,474.001z M93.394,476.501
		c-19.825-0.337-41.507,0.676-64.5,0c-0.39,0.11-0.582,0.419-0.5,1c31.82,1.064,69.805,0.325,98,0.5
		C115.072,476.295,104.44,476.689,93.394,476.501z M249.894,478.501c7.116,1.584,16.777,0,25,0c23.642,0,48.805,1.671,72-0.5
		c-38.595-1.098-58.174-0.813-98.5-1C248.546,478.792,248.945,478.291,249.894,478.501z"/>
	<path fill-rule="evenodd" clip-rule="evenodd" d="M143.894,470.501c-33.235,0.879-74.116,0.8-109,0c-0.082-0.581,0.11-0.89,0.5-1
		C76.242,470.184,107.844,468.606,143.894,470.501z"/>
	<path fill-rule="evenodd" clip-rule="evenodd" d="M364.394,471.001c-37.354,2.566-72.634,0.056-108,0.5
		c-0.851,0.184-0.943-0.39-1-1C293.895,469.51,324.747,470.439,364.394,471.001z"/>
	<path fill-rule="evenodd" clip-rule="evenodd" d="M171.894,474.001c-36.951,1.674-83.376,1.634-119.5,0
		C84.384,472.888,132.666,473.351,171.894,474.001z"/>
	<path fill-rule="evenodd" clip-rule="evenodd" d="M392.394,474.501c-34.464,0.383-74.603,2.704-113.5,1
		c-1.617-0.071-5.146,1.185-6-1.5C310.99,474.293,353.588,473.364,392.394,474.501z"/>
	<path fill-rule="evenodd" clip-rule="evenodd" d="M126.394,478.001c-28.195-0.175-66.18,0.564-98-0.5c-0.082-0.581,0.11-0.89,0.5-1
		c22.993,0.676,44.675-0.337,64.5,0C104.44,476.689,115.072,476.295,126.394,478.001z"/>
	<path fill-rule="evenodd" clip-rule="evenodd" d="M248.394,477.001c40.326,0.187,59.905-0.098,98.5,1
		c-23.195,2.171-48.358,0.5-72,0.5c-8.223,0-17.884,1.584-25,0C248.945,478.291,248.546,478.792,248.394,477.001z"/>
	<path fill-rule="evenodd" clip-rule="evenodd" d="M450.894,151.001c1.956-3.878,4.735-6.931,9-8.5
		c-1.955,3.378-5.907,4.759-7.5,8.5c3.194-0.972,3.806-4.528,7-5.5c-2.297,3.703-4.978,7.022-9,9c-0.089-1.755,1.688-1.645,2-3
		C452.313,150.916,451.482,151.08,450.894,151.001z"/>
	<path fill-rule="evenodd" clip-rule="evenodd" fill="#BB8748" d="M457.894,180.501c-4.037,0.41-8.161-0.857-12.5-0.5
		c-15.318,1.26-24.987,10.561-34,18.5c-3.136-3.197-5.534-7.132-9-10C408.789,169.678,443.975,165.805,457.894,180.501z
		 M413.894,188.501c3.631-2.369,6.782-5.217,9-9C418.838,181.446,416.057,184.664,413.894,188.501z M422.894,175.501
		c-3.32,2.68-6.428,5.572-8.5,9.5C417.696,182.595,422.488,179.151,422.894,175.501z M417.394,189.001
		c3.902-2.264,7.022-5.311,9-9.5C422.733,182.007,419.439,184.879,417.394,189.001z"/>
	<path fill-rule="evenodd" clip-rule="evenodd" fill="#E9EEF1" d="M484.894,243.501c0.355,3.861-3.984,7.344-6.5,10
		c-19.466-19.367-38.255-39.413-57-59.5c9.82-10.872,28.679-14.835,44-8c19.076,8.51,29.907,36.376,19,57
		c-1.273,2.408-4.238,4.771-6,8C481.375,251.227,483.133,246.139,484.894,243.501z M451.394,185.001
		c-8.182-0.436-19.745,1.308-25,8.5c5.55-2.32,9.212-5.416,14.5-6.5c32.719-6.707,55.804,31.609,38.5,58
		C497.503,221.048,477.872,186.411,451.394,185.001z M439.394,194.501c27.851-4.587,42.623,14.832,38,39.5
		C486.248,209.568,464.023,185.497,439.394,194.501z"/>
	<path fill-rule="evenodd" clip-rule="evenodd" fill="#BB8748" d="M411.894,203.001c-6.146,4.854-10.807,11.193-16.5,16.5
		c-4.834-3.166-7.854-8.146-11.5-12.5c4.522-6.311,10.721-10.946,15.5-17C404.765,193.131,407.895,198.5,411.894,203.001z
		 M398.894,198.501c-2.607,3.059-6.229,5.104-8,9C394.189,205.683,399.88,201.311,398.894,198.501z M402.394,198.001
		c1.222-2.835,0.289-6.638-3.5-6c-1.788,0.712-2.228,2.773-2,5.5C399.398,197.93,399.656,198.665,402.394,198.001z M390.894,211.501
		c2.814-1.866,8.945-7.559,8-9.5C396.058,204.999,392.652,207.426,390.894,211.501z M393.894,212.001c3.731-2.436,7.024-5.31,9-9.5
		C399.134,204.908,395.945,207.885,393.894,212.001z"/>
	<path fill-rule="evenodd" clip-rule="evenodd" fill="#E9EEF1" d="M23.394,456.001c2.233-27.782,0.034-56.11,2-81
		c4.042-51.186,22.568-88.272,46-120c11.745-15.903,27.457-27.898,41.5-41.5c-10.829,6.505-21.703,17.297-30.5,27.5
		c1.533-5.136,6.623-11.042,8.5-17.5c2.308-4.526,8.246-5.421,10.5-10c-3.409-0.364-7.611,7.998-11,6c2.925-2.575,6.08-4.92,8-8.5
		c72.723-2.081,136.052,3.247,206,0.5c3.451-0.136,8.1,0.127,12.5,0c5.073-0.146,12.505-0.976,15.5,0c2.291,0.746,3.292,3.961,5,5.5
		c3.024,2.725,6.813,4.595,10,7.5c5.722,5.217,11.896,10.912,17.5,17c2.654,2.884,6.228,6.29,6.5,10.5
		c-7.164-6.169-12.534-14.132-19.5-20.5c-6.856-6.31-13.625-12.708-21.5-18c2.194,4.456,6.91,6.927,10.5,10
		c10.692,9.154,20.832,19.671,30,31c2.344,9.823,5.032,19.301,9,27.5c-16.537-26.796-35.947-50.718-61.5-68.5
		c3.986,5.22,9.581,9.087,14.5,13.5c14.275,12.809,28.475,27.73,39,45c18.762,30.783,32.015,64.758,35.5,110
		c1.774,23.036-1.746,49.861,0.5,74.5c3.982-58.296,0.57-117.458-18.5-155.5c3.339,3.802,4.85,7.705,8,12
		c2.597,3.541,7.342,6.595,9.5,10.5c1.166,2.11,1.213,5.768,2,9c0.705,2.896,2.041,5.984,2.5,8.5c6.075,33.271,3.939,80.178,5,115.5
		c0.329-28.435,1.339-59.042,0-89.5c-0.672-15.287-5.427-28.63-7-41.5c4.238,2.75,4.472,9.312,5.5,14.5
		c2.424,12.225,3.883,27.929,4.5,43c1.164-5.002,0.168-12.165,0.5-18c2.305,29.362,0.354,62.979,1,94
		c-138.15,0.173-274.125,0.192-410-1c0.119-27.64-0.173-60.523,0-83.5c1.045,30.943,0.526,54.228,0.5,81.5
		c3.317-3.195,1-7.908,1-11.5c0-45.754-1.859-89.646,11-128.5c2.194-6.628,4.74-13.333,7.5-19.5c2.66-5.943,4.705-12.785,10-16.5
		c1.006,2.957-1.936,5.24-3,7.5c-9.04,19.193-16.596,39.848-20.5,65c-4.795,30.896-1.594,70.644-2.5,103
		c2.784-33.21-1.275-69.766,3.5-99.5c4.902-30.523,13.354-55.538,25.5-77c8.035-4.299,14.34-10.326,20-17
		c-0.986,3.292-3.178,6.091-5,9c-12.805,20.452-25.086,45.124-31,73.5C21.123,376.991,23.949,414.487,23.394,456.001z
		 M130.894,214.001c-28.464,21.883-50.083,49.854-67,83.5c-22.378,44.51-27.829,97.963-23.5,159c1.2-28.591-0.288-58.794,2-84
		c1.569-17.284,6.512-34.834,12-50c16.601-45.877,44.676-81.046,78-108.5c-0.112-0.388-0.014-0.986-0.5-1
		C131.888,213.662,131.018,213.458,130.894,214.001z M70.894,377.501c10.052-72.575,44.118-123.394,87-163.5
		c-0.11-0.39-0.419-0.582-1-0.5c-57.186,51.78-98.521,127.036-88.5,242.5C69.769,427.139,67.591,401.35,70.894,377.501z
		 M189.894,213.501c-25.253,28.654-46.894,61.781-62.5,102.5c-13.17,34.363-19.124,76.792-18.5,123c0.078,5.771-1.264,12.025,1,17.5
		c-5.628-113.797,31.274-185.058,81.5-243C190.894,213.501,190.394,213.501,189.894,213.501z M240.894,215.501
		c26.2,27.568,46.435,61.387,62,101c7.651,19.474,13.413,42.022,16,65.5c2.639,23.943,2.382,48.874,3.5,75
		c6.67-112.99-29.812-186.3-81.5-243.5C240.894,214.168,240.894,214.835,240.894,215.501z M274.394,215.001
		c44.611,42.373,81.587,97.089,88,177.5c1.554,19.478-0.974,43.976,1.5,64.5c2.474-55.196-1.746-104.88-19.5-145.5
		c-16.601-37.981-40.265-73.331-70.5-98C273.972,214.09,273.808,214.921,274.394,215.001z M299.894,215.001
		c16.072,12.604,28.844,26.858,42,43.5c25.038,31.672,43.125,71.941,47.5,123.5c2.069,24.389,0.071,52.801,2,74.5
		c0.344-28.061,1.883-56.33-1-81c-2.944-25.199-9.108-47.404-17-67c-17.46-38.539-41.955-70.045-73-95c-0.5,0-1,0-1.5,0
		C298.868,214.362,299.279,214.783,299.894,215.001z M419.894,391.001c1.084,0.084,0.227-1.773,0.5-2.5c-0.5,0-1,0-1.5,0
		C419.945,389.719,418.102,391.074,419.894,391.001z M419.894,395.001c0.688-0.642,0.87-2.99-0.5-3
		C419.682,392.88,418.79,394.939,419.894,395.001z M419.894,414.001c0.665-4.665-0.11-10.776,0.5-17c-0.5,0-1,0-1.5,0
		C419.808,401.484,417.719,410.074,419.894,414.001z M420.394,419.501c-0.81-2.054,0.638-3.274-1-4.5
		C419.173,416.494,418.096,419.284,420.394,419.501z M420.394,424.001c0.021-1.521,0.291-3.291-1.5-3
		C419.148,422.248,418.877,424.018,420.394,424.001z M418.894,443.001c2.494-3.205,1.046-9.491,0.5-14.5
		C418.271,432.379,419.195,438.302,418.894,443.001z M418.894,449.001c1.469-0.536,2.213-5.055,0-5
		C418.894,445.668,418.894,447.334,418.894,449.001z M419.894,456.501c-0.54-1.96,1.158-6.157-1-6.5
		C419.434,451.961,417.736,456.159,419.894,456.501z"/>
	<path fill-rule="evenodd" clip-rule="evenodd" fill="#E9EEF1" d="M358.394,233.501c4.867,2.635,10.403,8.929,14,14.5
		C367.425,243.471,363.601,237.795,358.394,233.501z"/>
	<path fill-rule="evenodd" clip-rule="evenodd" d="M88.894,214.501c8.841-0.78,5.326-8.438,8.5-13.5
		c2.544-4.058,10.61-8.593,16-10.5c21.635-7.655,55.175-9.314,82.5-11c3.586-4.293,5.321-10.937,3.5-17
		c-1.023-3.407-4.209-6.816-6-10c-1.889-3.358-4.408-7.07-5-11c-2.452-16.265,9.348-28.76,19.5-31.5
		c12.834-3.464,21.966,2.347,30,10c4.024,7.984,6.487,14.675,4.5,23.5c-3.051,13.546-20.052,23.37-6,36.5
		c30.34,0.848,75.26,2.793,97.5,20.5c0.098,3.176,3.363,5.49,1.5,9c13.581,11.086,26.736,22.596,38.5,35.5
		c8.18-5.82,13.921-14.079,21.5-20.5c-4.537-6.296-10.585-11.082-15-17.5c12.029-11.971,21.531-26.469,36.5-35.5
		c5.175-1.658,10.752-2.915,17.5-3c5.473-12.729,13.975-23.629,23-33.5c2.577-2.818,5.112-8.173,10-7.5
		c3.195,2.373,0.635,6.745,0,10c-1.304,6.689-1.172,13.527-2.5,20.5c2.005,7.828,0.332,19.335,3.5,26
		c11.796,7.05,22.585,20.913,24.5,36.5c2.373,19.323-9.431,31.782-19.5,41.5c-0.293,1.541-3.091,0.575-4,1.5
		c-15.559,17.994-29.454,36.108-46,55c-2.358,2.692-5.982,5.163-6.5,7.5c-1.038,4.686,2.396,9.93,3,14
		c5.159,34.727,2.916,77.828,3.5,118c7.182,0.726,6.103,9.218,6,19c-0.069,6.615-0.693,10.759-3,12.5c-3.448,2.603-17.24,1.5-26,1.5
		c-27.828,0-49.041,0-78,0c-102.521,0.001-187.915-0.5-293.5-0.5c-8.38,0-17.259,1.39-24.5-2.5c-2.185-7.234-6.063-29.754,4.5-30.5
		c1.855-32.329-2.944-65.858,1-99.5c3.274-27.924,9.695-48.154,20-70c1.573-3.334,4-6.827,4-8.5c0-2.316-3.516-7.541-5.5-11.5
		c-17.098-34.11-35.667-76.852-25.5-131c1.644-8.752,4.776-18.214,8-26.5c15.618-40.145,48.027-67.505,86-85.5
		c26.664-12.636,58.083-19.425,100-16c11.063,0.904,20.865,4.998,31.5,7c10.909,2.054,23.077,3.021,34,2.5
		c24.344-1.163,38.54-11.28,58.5-18c2.315-0.78,5.39-0.547,9.5,0c6.136,3.272,10.111,11.867,6.5,19.5
		c-3.176,6.713-17.118,11.86-24,15.5c-17.684,9.352-35.416,18.092-59,20c-33.972,2.749-83.462-7.134-117,6
		c-21.152,8.284-39.098,26.137-48,46C76.675,134.763,75.994,184.464,88.894,214.501z M84.394,212.501
		c-2.835-8.468-5.831-19.555-7.5-30.5c-2.973-19.49,0.438-41.148,3-59.5c2.921-7.01,4.85-13.124,7.5-18.5
		c13.506-27.394,37.799-47.125,73-52c20.688-2.866,44.312-0.951,61,0.5c41.963,3.648,69.043-8.828,94.5-23
		c6.062-3.375,16.823-7.357,18.5-12c3.176-8.792-5.472-16.169-13-13c-15.684,6.602-32.646,14.446-51.5,17
		c-33.329,4.516-58.106-9.068-87-10c-2.695-0.087-5.737,0.524-8.5,0.5c-40.15-0.346-66.127,10.113-90.5,24
		c-39.282,22.382-70.197,55.117-78.5,108c-0.804,5.119-3.096,12.206,1,17c4.074-60.834,32.901-96.165,73-120.5
		c13.099-7.95,28.798-16.167,44.5-20.5c18.969-5.233,40.329-6.985,61.5-6c20.345,0.946,38.102,8.128,59,10
		c17.712,1.587,34.631-1.017,47.5-5.5c9.524-3.318,17.896-8.277,27.5-10c-18.637,8.424-41.18,19.104-68,17.5
		c-20.543-1.229-40.27-8.518-62-10c-22.065-1.505-46.692-0.018-66,5.5c-3.51,1.003-6.844,3.154-10.5,4.5
		c-26.08,9.6-49.108,24.88-66,42c-19.815,20.082-35.982,47.755-39,84c-0.843,10.127-0.079,16.621,5.5,21.5
		c-1.208-69.063,33.034-105.806,76-130.5c33.042-18.99,78.843-29.579,126.5-17.5c14.472,3.668,29.711,6.926,46,6
		c21.412-1.218,38.917-8.867,55-15c3.378-1.288,6.282-3.855,10-3.5c-29.473,18.011-57.808,33.988-106.5,30.5
		c-37.592-2.693-70.72-3.193-96,10c-35.853,18.71-58.823,54.867-58.5,107c0.167,26.903,8.37,48.02,14.5,69
		c-4.759-10.665-8.854-21.927-11.5-33c-11.549-48.338,2.62-98.384,27-124c23.331-24.515,57.356-34.1,102.5-32
		c22.429,1.043,44.567,3.337,64.5-0.5c18.57-3.575,33.832-11.272,48-20c-14.327,5.645-29.458,11.485-48,13
		c-24.921,2.036-45.818-7.888-69.5-10c-23.217-2.071-47.817-1.237-70,6c-33.014,10.771-57.04,28.358-77.5,51.5
		c-15.264,17.264-25.348,37.285-30,66.5c-1.477,9.276-3.601,20.284-1.5,29c1.41,5.851,9.247,13.135,13.5,18.5
		c14.713,18.562,31.693,32.812,52,44c3.973-5.361,7.834-10.832,9-19C87.302,217.271,85.208,214.932,84.394,212.501z
		 M195.394,151.001c0.093,0.74,1.208,0.458,2,0.5c3.534,8.483,17.794,8.285,29.5,7c4.124-2.543,6.512-6.821,11-9
		c2.992-7.066,3.875-14.422,1-22.5c-6.212-5.02-10.273-12.591-19.5-14c-13.875-2.118-22.532,7.496-27,17.5c0,1.5,0,3,0,4.5
		c-1.272,0.544-1.939-2.341-2,0C190.271,142.125,192.144,147.251,195.394,151.001z M466.394,130.001c-0.11-0.39-0.419-0.582-1-0.5
		c-11.191,11.475-21.58,23.753-28.5,39.5c7.227-0.06,10.841,3.493,16.5,5c3.881,3.119,6.576,7.424,12,9
		C462.366,166.142,463.238,146.003,466.394,130.001z M198.894,182.501c6.938-2.165,8.302-13.753,6-22
		c-1.178,0.011-1.472-0.861-3-0.5C206.014,167.653,202.295,176.786,198.894,182.501z M233.894,182.001
		c-5.027-3.376-8.108-14.174-4.5-21.5c-0.11-0.39-0.419-0.582-1-0.5C222.294,163.495,226.562,184.965,233.894,182.001z
		 M202.394,183.001c9.047,2.622,17.507,2.258,27,0.5c-3.721-5.518-7.311-14.879-4-23c-5.587,1.328-13.413,1.328-19,0
		C209.266,168.757,206.202,178.248,202.394,183.001z M36.394,278.501c10.227-0.939,14.23-8.103,21-12.5
		c-9.273-9.394-18.064-19.27-27-29c-6.041-9.89-13.75-20.416-19-31c-1.69-3.408-4.357-7.765-3.5-11.5
		c11.931,28.402,29.622,51.044,51,70c3.713-4.787,8.943-8.057,12-13.5c-28.317-18.849-52.143-44.857-66-76.5
		c4.791,5.709,8.025,12.975,11.5,20c14.838,21.828,33.244,40.089,54.5,55.5c3.496-1.671,5.314-5.019,7-8.5
		c-32.924-18.909-58.874-44.793-75-80.5C0.517,211.712,19.262,245.633,36.394,278.501z M402.394,188.501
		c3.466,2.868,5.864,6.803,9,10c9.013-7.939,18.682-17.24,34-18.5c4.339-0.357,8.463,0.91,12.5,0.5
		C443.975,165.805,408.789,169.678,402.394,188.501z M478.394,251.001c1.762-3.229,4.727-5.592,6-8c10.907-20.624,0.076-48.49-19-57
		c-15.321-6.835-34.18-2.872-44,8c18.745,20.087,37.534,40.133,57,59.5c2.516-2.656,6.855-6.139,6.5-10
		C483.133,246.139,481.375,251.227,478.394,251.001z M189.894,183.501c-32.362,3.248-70.417,3.156-90.5,19.5
		c83.733-1.001,155.96,1.922,232-0.5c-22.857-15.476-59.748-16.919-95.5-19.5c-1.005,1.995-4.23,1.77-6,3
		c31.407,0.761,61.446,2.661,86,11.5c2.479,0.892,6.914,1.254,7.5,4.5c-22.942-9.974-51.072-12.49-80.5-14
		c-45.948-2.357-97.322-0.479-134,13c3.686-3.608,9.584-4.961,15-6.5c22.631-6.43,50.977-7.511,78.5-9
		C197.927,184.127,194.354,183.054,189.894,183.501z M399.394,190.001c-4.779,6.054-10.978,10.689-15.5,17
		c3.646,4.354,6.666,9.334,11.5,12.5c5.693-5.307,10.354-11.646,16.5-16.5C407.895,198.5,404.765,193.131,399.394,190.001z
		 M413.894,201.501c3.041-0.626,4.227-3.106,6-5c-0.205-0.628-0.645-1.022-1.5-1C417.571,198.178,414.099,198.207,413.894,201.501z
		 M415.894,203.501c1.093,1.574,2.577,2.756,4.5,3.5c0.868-2.465,3.814-2.852,4.5-5.5c-1.083-1.583-2.433-2.9-4.5-3.5
		C419.648,200.588,416.533,200.807,415.894,203.501z M425.394,203.501c-1.088,2.079-3.462,2.872-4.5,5
		c16.132,16.036,30.914,33.419,48,48.5c0.863-2.136,2.737-3.263,4.5-4.5c-0.444-2.222-2.909-2.424-3.5-4.5
		c-2.88,0.454-2.725,3.941-6,4c0.486-2.847,3.727-2.94,4.5-5.5C453.575,232.654,440.85,216.712,425.394,203.501z M396.894,221.501
		c0.93,2.737,3.408,3.925,4.5,6.5c6.323-5.51,12.775-10.892,17.5-18c-2.574-1.26-3.021-4.645-6-5.5
		C408.002,210.61,402.041,215.648,396.894,221.501z M236.894,206.001c2.508-0.325,6.322,0.655,8-0.5
		C243.128,204.778,237.948,204.403,236.894,206.001z M97.394,206.001c0,0.667,0,1.333,0,2c27.809,1.75,57.3-1.103,86.5,0
		c1.438,0.473,1.923,1.191,3.5,1.5c15.932,3.125,36.975-2.335,54,0c0.513-1.654,3.131-1.202,4.5-2c-2.854-1.397-9.362,0.21-11.5-0.5
		c-0.214-1.381,1.864-0.469,2-1.5c-22.359,0.079-47.185-0.052-71,0c-6,0-12,0-18,0c-3,0-6,0-9,0c-5.51,0.192,1.303,0.771,3.5,0.5
		c11.667,0.333,24.666-0.666,35.5,0.5c-22.683,1.19-45.553,0.134-64,0c0.635-1.384,6.988,0.347,6-1
		C112.212,205.82,103.748,204.855,97.394,206.001z M133.394,205.501c-3.837,0.329-8.995-0.661-12,0.5
		C125.231,205.672,130.389,206.663,133.394,205.501z M327.394,206.001c-12.076-0.439-23.657-0.693-32,0c1.03,0.303,3.474-0.807,3,1
		c-5.503,1.497-14.497-0.497-20,1c17.046-0.378,37.296,2.442,55.5,0C333.861,204.709,329.513,206.079,327.394,206.001z
		 M249.394,207.501c-0.591-0.576-1.768-0.566-3-0.5C245.689,208.598,249.386,208.265,249.394,207.501z M268.894,207.501
		c-1.195,0.305-3.628-0.628-4,0.5C266.678,207.62,268.328,209.551,268.894,207.501z M27.894,344.501
		c5.914-28.376,18.195-53.048,31-73.5c1.822-2.909,4.014-5.708,5-9c-5.66,6.674-11.965,12.701-20,17
		c-12.146,21.462-20.598,46.477-25.5,77c-4.775,29.734-0.716,66.29-3.5,99.5c0.906-32.356-2.295-72.104,2.5-103
		c3.904-25.152,11.46-45.807,20.5-65c1.064-2.26,4.006-4.543,3-7.5c-5.295,3.715-7.34,10.557-10,16.5
		c-2.76,6.167-5.306,12.872-7.5,19.5c-12.859,38.854-11,82.746-11,128.5c0,3.592,2.317,8.305-1,11.5
		c0.026-27.272,0.545-50.557-0.5-81.5c-0.173,22.977,0.119,55.86,0,83.5c135.875,1.192,271.85,1.173,410,1
		c-0.646-31.021,1.305-64.638-1-94c-0.332,5.835,0.664,12.998-0.5,18c-0.617-15.071-2.076-30.775-4.5-43
		c-1.028-5.188-1.262-11.75-5.5-14.5c1.573,12.87,6.328,26.213,7,41.5c1.339,30.458,0.329,61.065,0,89.5
		c-1.061-35.322,1.075-82.229-5-115.5c-0.459-2.516-1.795-5.604-2.5-8.5c-0.787-3.232-0.834-6.89-2-9
		c-2.158-3.905-6.903-6.959-9.5-10.5c-3.15-4.295-4.661-8.198-8-12c19.07,38.042,22.482,97.204,18.5,155.5
		c-2.246-24.639,1.274-51.464-0.5-74.5c-3.485-45.242-16.738-79.217-35.5-110c-10.525-17.27-24.725-32.191-39-45
		c-4.919-4.413-10.514-8.28-14.5-13.5c25.553,17.782,44.963,41.704,61.5,68.5c-3.968-8.199-6.656-17.677-9-27.5
		c-9.168-11.329-19.308-21.846-30-31c-3.59-3.073-8.306-5.544-10.5-10c7.875,5.292,14.644,11.69,21.5,18
		c6.966,6.368,12.336,14.331,19.5,20.5c-0.272-4.21-3.846-7.616-6.5-10.5c-5.604-6.088-11.778-11.783-17.5-17
		c-3.187-2.905-6.976-4.775-10-7.5c-1.708-1.539-2.709-4.754-5-5.5c-2.995-0.976-10.427-0.146-15.5,0c-4.4,0.127-9.049-0.136-12.5,0
		c-69.948,2.747-133.277-2.581-206-0.5c-1.92,3.58-5.075,5.925-8,8.5c3.389,1.998,7.591-6.364,11-6
		c-2.254,4.579-8.192,5.474-10.5,10c-1.877,6.458-6.967,12.364-8.5,17.5c8.797-10.203,19.671-20.995,30.5-27.5
		c-14.043,13.602-29.755,25.597-41.5,41.5c-23.432,31.728-41.958,68.814-46,120c-1.966,24.89,0.233,53.218-2,81
		C23.949,414.487,21.123,376.991,27.894,344.501z M420.894,213.001c-7.104,5.562-12.116,13.217-19.5,18.5
		c-1.179-0.154-0.931-1.736-2.5-1.5c-6.709,7.958-13.891,15.443-22,22c5.76-9.407,15.749-14.584,21.5-24
		c-4.314,0.95-7.168,5.681-10.5,9c-3.548,3.533-7.308,7.063-10.5,10.5c-2.155-1.358-1.57,0.9-3.5,1c-0.472,3.773-0.647,8.369,0.5,13
		c3.263,13.17,9.079,23.456,15.5,34.5c7.281,12.523,12.368,24.033,25,28.5c15.961-23.373,36.121-42.546,53-65
		C451.444,244.785,437.328,227.734,420.894,213.001z M490.394,227.501c-0.185-1.344,0.458-6.086-0.5-5
		C490.079,223.846,489.436,228.588,490.394,227.501z M485.394,242.501c2.631-1.542,4.478-6.515,3.5-10
		C488.521,236.629,486.643,239.25,485.394,242.501z M372.394,248.001c-3.597-5.571-9.133-11.865-14-14.5
		C363.601,237.795,367.425,243.471,372.394,248.001z M468.894,258.501c2.773,0.972,5.198-2.37,6-5c-0.11-0.39-0.419-0.582-1-0.5
		C473.049,255.657,469.756,255.864,468.894,258.501z M12.394,361.501c2.433-30.271,12.583-57.057,24-80
		c-0.11-0.39-0.419-0.581-1-0.5C24.319,304.094,12.986,329.593,12.394,361.501z M419.894,363.501
		c-0.636-13.697-2.303-26.364-6.5-36.5C415.981,338.748,418.167,350.896,419.894,363.501z M11.894,372.501
		c-0.753-3.359,1.597-6.856-0.5-8.5C11.062,365.82,9.825,371.559,11.894,372.501z M224.394,461.001c-70.655,0-143.04,1.558-208-0.5
		c-2.8-0.089-8.12,0.22-11,1.5c-0.927,6.082-3.116,20.826,1.5,24.5c3.665,2.917,16.464,1.5,25.5,1.5
		c104.037,0,189.295-0.597,294,0.5c23.084,0.242,46.808,1.627,76,0.5c7.711-0.298,19.656,1.076,23-1.5
		c4.533-3.492,1.52-19.313,1-25.5C362.994,460.701,296.725,461.001,224.394,461.001z"/>
	<path fill-rule="evenodd" clip-rule="evenodd" d="M396.894,197.501c-0.228-2.727,0.212-4.788,2-5.5c3.789-0.638,4.722,3.165,3.5,6
		C399.656,198.665,399.398,197.93,396.894,197.501z"/>
</g>
</svg>
